<svg viewBox="0 0 40 40" fill="none" xmlns="http://www.w3.org/2000/svg">
<rect x="2" y="2" width="36" height="36" stroke="#8693AB" stroke-width="4"/>
<path d="M21.5808 34.6C19.0741 34.6 16.7141 34.04 14.5008 32.92C12.2874 31.7733 10.5008 30.1733 9.14078 28.12C7.80745 26.0667 7.14078 23.72 7.14078 21.08C7.14078 18.5467 7.84745 16.2533 9.26078 14.2C10.6741 12.12 12.5674 10.48 14.9408 9.28C17.3141 8.08 19.8608 7.48 22.5808 7.48C23.9674 7.48 25.0874 7.56 25.9408 7.72C26.8208 7.85333 28.0741 8.12 29.7008 8.52C30.0741 8.62667 30.3408 8.78667 30.5008 9C30.6874 9.21333 30.8074 9.50666 30.8608 9.88C31.0741 11.96 31.1941 13.4933 31.2208 14.48C31.2474 14.64 31.1808 14.7867 31.0208 14.92C30.8874 15.0267 30.7274 15.08 30.5408 15.08C30.1941 15.08 29.9674 14.8933 29.8608 14.52C29.5674 13.3733 29.2341 12.4667 28.8608 11.8C28.5141 11.1067 28.0208 10.5333 27.3808 10.08C26.7141 9.65333 25.9008 9.32 24.9408 9.08C24.0074 8.84 22.9941 8.72 21.9008 8.72C19.8741 8.72 18.0474 9.25333 16.4208 10.32C14.7941 11.3867 13.5141 12.8 12.5808 14.56C11.6474 16.2933 11.1808 18.1467 11.1808 20.12C11.1808 22.3333 11.6474 24.4667 12.5808 26.52C13.5141 28.5467 14.8074 30.2 16.4608 31.48C18.1408 32.7333 20.0474 33.36 22.1808 33.36C24.0208 33.36 25.5674 32.9467 26.8208 32.12C28.1008 31.2667 29.2074 30.0133 30.1408 28.36C30.2208 28.2 30.3408 28.08 30.5008 28C30.6608 27.8933 30.8074 27.84 30.9408 27.84C31.1008 27.84 31.2341 27.8933 31.3408 28C31.4474 28.1067 31.5008 28.2667 31.5008 28.48C31.5008 28.8 31.3808 29.3867 31.1408 30.24C30.9008 31.0667 30.6608 31.7733 30.4208 32.36C30.2074 32.7333 30.0474 32.9733 29.9408 33.08C29.8341 33.1867 29.5674 33.3067 29.1408 33.44C28.2074 33.8133 27.0608 34.0933 25.7008 34.28C24.3408 34.4933 22.9674 34.6 21.5808 34.6Z" fill="#8693AB"/>
</svg>
