<svg viewBox="0 0 410 568" fill="none" xmlns="http://www.w3.org/2000/svg">
<path d="M293.248 533.99C285.571 521.132 279.455 517.721 260.457 517.196C241.458 516.671 216.214 516.934 216.214 516.934L215.954 544.092C215.954 544.092 236.904 556.294 248.095 562.329C248.745 562.723 250.567 563.773 251.868 564.56C253.82 565.478 255.902 566.265 257.984 566.79C269.045 569.152 279.065 567.971 286.221 560.755C294.159 552.752 300.926 546.848 293.248 533.99Z" fill="#464751"/>
<path d="M149.98 509.849C149.33 510.374 147.638 511.686 146.467 512.604C144.905 514.047 143.474 515.753 142.173 517.458C135.927 526.905 133.194 536.745 137.228 546.192C141.652 556.557 144.645 565.216 159.219 562.723C173.793 560.23 179.389 555.769 186.936 538.32C194.483 520.87 203.722 496.991 203.592 496.991L178.738 486.626C178.738 486.626 159.74 501.714 149.98 509.849Z" fill="#464751"/>
<path d="M217.906 518.114C217.906 518.114 218.296 545.536 213.872 546.192C209.448 546.848 148.419 537.926 124.085 536.614C99.7519 535.302 44.5788 519.426 17.5128 488.594C-5.90975 461.96 -2.26624 432.44 15.0404 432.44C32.3471 432.44 48.2223 417.614 92.2047 438.738C136.187 459.861 182.772 463.403 208.927 461.304C235.082 459.205 308.343 445.56 314.068 441.362C319.794 437.163 347.25 425.093 385.507 429.291C423.764 433.49 405.676 464.059 397.609 475.868C386.288 492.268 359.482 509.849 337.1 510.636C314.719 511.423 217.906 518.114 217.906 518.114Z" stroke="#464751" stroke-width="0.6"/>
<path d="M307.953 191.16C287.913 172.661 281.147 168.2 263.58 174.498C246.013 180.796 237.425 186.568 213.482 190.504C198.778 193.128 183.553 191.16 169.89 185.125L120.572 190.111C114.326 189.324 44.1888 322.1 42.4972 349.652C41.4562 366.577 79.5829 392.686 90.2531 395.31C94.5473 396.36 102.225 354.637 104.697 350.833L88.6916 345.847C91.5544 338.631 101.184 320.787 107.56 311.21C109.512 308.192 124.736 282.87 126.818 273.161C127.209 274.08 129.421 292.448 131.503 298.352C135.407 309.242 140.742 315.408 140.742 324.068C140.742 332.727 139.701 367.102 133.455 382.583C127.209 398.065 118.1 433.883 118.1 433.883L275.812 432.965C275.812 432.965 270.086 364.609 272.428 341.124C272.428 341.124 269.956 331.677 274.641 318.032C282.318 295.466 284.53 261.878 283.229 256.63C281.277 248.364 329.553 318.295 340.094 336.007C344.518 343.354 284.53 356.343 279.585 361.985C274.38 367.889 284.66 383.895 284.66 383.895C284.66 383.895 389.281 371.038 388.762 354.9C388.24 338.762 331.245 212.546 307.953 191.16Z" stroke="#464751" stroke-width="0.6"/>
<path d="M185.244 0.787209C185.244 0.787209 155.966 1.96802 147.508 32.9316C139.05 63.8951 137.879 107.06 137.619 113.752C137.358 120.837 140.611 162.296 124.866 179.615C111.333 194.572 116.798 209.004 113.415 220.943L111.854 240.755C112.114 243.116 113.806 245.084 116.018 245.872C118.1 246.528 125.387 243.116 126.688 242.591C144.906 235.244 144.906 229.34 151.802 223.436C157.528 218.582 173.273 207.298 177.957 202.837C182.642 198.377 185.895 194.441 186.155 188.799C187.066 160.066 182.121 133.563 175.875 119.525C169.629 105.486 157.658 81.7385 167.677 65.9943C177.697 50.2502 195.785 34.506 196.826 30.5699C197.867 26.6339 198.387 45.7893 209.448 52.4806C220.508 59.1719 229.747 68.4872 233.13 77.5401C235.993 85.1497 239.767 98.1387 229.357 120.574C218.947 143.01 210.489 171.874 225.193 193.26C239.897 214.646 270.867 237.737 275.942 248.496C281.667 260.435 276.202 288.512 275.161 305.437C274.12 322.362 307.952 276.048 306.911 254.006C305.87 231.964 309.514 222.518 288.564 188.668C267.614 154.818 253.951 96.8267 253.43 82.7881C252.91 68.7496 246.663 29.7827 234.041 18.6306C223.111 9.1841 220.769 0 198.387 0C193.963 0 189.538 0.262403 185.244 0.787209Z" fill="#464751"/>
<path opacity="0.07" d="M118.49 469.964L266.312 470.751C266.312 470.751 249.006 484.396 240.678 485.97C232.35 487.545 196.695 505.388 183.423 498.565C174.054 493.449 118.49 469.964 118.49 469.964Z" fill="#464751"/>
<path opacity="0.07" d="M200.859 135.269C200.859 135.269 214.653 138.811 220.378 130.677C233.261 112.308 221.549 139.992 221.549 139.992C221.549 139.992 217.776 150.75 218.036 156.13C218.296 161.509 203.202 136.056 200.859 135.269Z" fill="#464751"/>
<path opacity="0.07" d="M145.686 229.734C143.995 231.833 141.522 233.539 140.221 238.918C138.009 247.577 135.667 257.286 129.681 266.208C126.167 271.456 128.119 291.792 133.975 304.65C135.667 308.323 140.872 317.901 140.741 320.131L140.351 338.762H156.226C156.226 338.762 169.759 340.205 166.897 328.922C164.424 318.951 151.542 281.821 160.26 273.686C176.656 258.598 155.966 228.422 163.643 218.713C170.28 210.316 179.779 204.281 179.779 201.525C179.779 200.476 177.307 203.887 175.615 205.068C172.362 207.429 170.67 209.266 167.938 211.103C164.945 213.071 160.39 216.351 157.397 218.582C153.103 221.862 149.2 225.535 145.686 229.734Z" fill="#464751"/>
<path d="M83.8757 349.258C83.8757 349.258 83.7456 339.549 93.2447 339.156C102.744 338.762 303.918 339.024 303.918 339.024C303.918 339.024 312.766 340.074 313.026 347.29C313.287 354.506 313.287 461.698 313.287 461.698C313.287 461.698 313.417 469.963 304.698 470.226C295.98 470.488 90.9025 470.488 90.9025 470.488C90.9025 470.488 83.2251 468.52 83.3536 460.779C83.4853 453.038 83.8757 349.258 83.8757 349.258Z" fill="#464751" stroke="#464751" stroke-width="0.6"/>
<path d="M199.168 413.547C203.983 413.547 207.886 409.611 207.886 404.756C207.886 399.902 203.983 395.966 199.168 395.966C194.353 395.966 190.449 399.902 190.449 404.756C190.449 409.611 194.353 413.547 199.168 413.547Z" fill="#8693AB"/>
</svg>
